<svg version="1.1" id="Layer_1" xmlns="http://www.w3.org/2000/svg" xmlns:xlink="http://www.w3.org/1999/xlink" x="0px" y="0px"
	 width="100%" viewBox="0 0 1000 1000" enable-background="new 0 0 1000 1000" xml:space="preserve">
<path fill="#093877" opacity="1.000000" stroke="none" 
	d="
M1000.000000,1001.000000 
	C667.067871,1001.000000 334.135773,1001.000000 1.000000,1001.000000 
	C1.000000,668.302429 1.000000,335.604858 1.455951,2.453632 
	C332.404022,2.000000 662.896118,1.999901 993.388245,2.002131 
	C995.554443,2.002146 997.720703,2.034396 999.936890,2.497841 
	C999.991272,335.629395 999.995605,668.314697 1000.000000,1001.000000 
M597.678345,828.182495 
	C597.775696,828.481323 597.873047,828.780212 598.091553,829.768921 
	C615.262390,861.678833 640.348022,885.514160 672.805664,901.246460 
	C697.565369,913.247620 724.101807,919.455444 751.532776,920.856201 
	C772.629944,921.933411 793.732117,920.984863 814.415405,915.926208 
	C844.171814,908.648682 871.109863,896.442993 891.859558,872.787048 
	C901.475464,861.824463 908.352417,849.444885 913.079773,835.872070 
	C919.475586,817.508850 921.937256,798.719116 920.279053,779.083496 
	C918.845093,762.102539 915.215942,745.968872 908.221252,730.574280 
	C897.694885,707.406921 879.835693,690.690247 859.159241,676.861572 
	C836.404785,661.642944 811.200500,651.085571 786.342041,639.892822 
	C770.897156,632.938660 755.330200,626.107788 740.497009,617.982239 
	C723.856140,608.866333 713.636780,595.286560 714.867676,574.825256 
	C715.719299,560.669189 721.566284,549.484497 733.697021,542.915283 
	C753.790710,532.033875 774.497009,533.048645 793.926636,544.693115 
	C801.132935,549.011963 806.638855,556.167786 813.245056,562.636902 
	C815.518372,565.673462 817.828918,568.683044 820.054443,571.754272 
	C822.248840,574.782654 823.973083,574.283142 825.955933,570.884705 
	C826.934326,570.384338 827.912720,569.883972 829.442322,569.646912 
	C834.976013,566.122009 840.509705,562.597168 846.731506,558.932800 
	C849.269470,557.391235 851.852783,555.919189 854.337219,554.295715 
	C863.585022,548.252441 872.800293,542.159424 882.712769,535.933838 
	C892.381042,530.269104 892.806824,529.351501 886.871826,519.993530 
	C883.082947,514.019409 878.801086,508.299835 874.228882,502.899048 
	C870.560974,498.566437 866.123718,494.885132 861.798279,490.520203 
	C861.606506,490.274353 861.366882,490.091095 860.729431,489.395569 
	C850.459473,479.312347 838.304749,472.222321 824.514343,466.421173 
	C822.667664,465.668915 820.869690,464.751892 818.966919,464.189270 
	C793.671631,456.709717 767.927429,454.147369 741.642456,456.923065 
	C720.422302,459.163910 700.248596,464.454407 681.777832,475.572449 
	C664.051270,486.242554 649.492676,500.156677 639.522766,518.219788 
	C622.294983,549.432434 620.104492,582.727905 628.545898,616.812134 
	C635.824402,646.200806 652.773499,669.237549 677.090088,687.072937 
	C697.894592,702.332336 721.239380,712.716309 744.637207,723.128357 
	C763.757385,731.636841 782.861694,740.281677 801.406067,749.953308 
	C817.820129,758.513855 828.504761,772.167603 828.699829,791.472351 
	C828.874451,808.754883 820.190063,821.730835 805.180054,829.793945 
	C784.169067,841.080566 761.704041,841.765930 738.871582,836.760315 
	C720.867554,832.813171 705.183594,824.199707 692.580017,810.836853 
	C684.656921,802.436462 677.946350,792.892395 670.411072,783.511902 
	C670.331726,783.541992 669.519592,783.732666 668.826294,784.130432 
	C660.180542,789.090088 651.517273,794.020813 642.929443,799.079285 
	C635.231323,803.613647 627.621033,808.297119 619.272400,813.060547 
	C613.174438,816.591064 607.005310,820.007446 601.032166,823.737854 
	C599.658203,824.595947 598.957214,826.531616 597.989624,828.006348 
	C597.989624,828.006348 597.969238,827.955017 597.678345,828.182495 
M543.000000,584.500000 
	C542.999878,545.179199 542.933105,505.858154 543.092407,466.538025 
	C543.110352,462.106812 541.788513,460.878754 537.418884,460.908905 
	C510.928314,461.092010 484.435883,460.998352 457.944061,461.001160 
	C451.007965,461.001892 451.002441,461.008545 451.002350,468.176056 
	C451.001068,573.476868 451.133148,678.778137 450.779510,784.077759 
	C450.747253,793.676758 448.411316,803.510803 445.600342,812.766602 
	C443.909882,818.332642 440.249847,824.312622 435.709595,827.823608 
	C417.238739,842.106934 396.752075,842.140808 375.990753,833.380554 
	C363.859955,828.262024 356.139954,818.060486 349.233063,807.345642 
	C345.842743,802.086060 342.855652,796.566650 339.780090,791.324951 
	C338.973297,791.438416 338.592346,791.387695 338.335846,791.542786 
	C316.028046,805.036560 293.700134,818.497620 271.450287,832.086365 
	C265.351868,835.810852 265.185791,836.925293 268.192505,843.390991 
	C268.753754,844.597961 269.337402,845.801697 270.010559,846.948364 
	C285.083191,872.622498 305.052338,892.980652 332.379425,905.810608 
	C351.151062,914.623840 370.859344,919.729248 391.359802,920.819824 
	C420.335205,922.361267 448.612946,919.074707 475.446625,906.508118 
	C493.265930,898.163147 507.733521,886.205811 518.994690,870.381775 
	C536.089478,846.360535 542.535034,818.712769 542.799072,789.934998 
	C543.424194,721.795105 543.000000,653.645630 543.000000,584.500000 
z"/>
<path fill="#FDFBED" opacity="1.000000" stroke="none" 
	d="
M999.886902,2.051594 
	C997.720703,2.034396 995.554443,2.002146 993.388245,2.002131 
	C662.896118,1.999901 332.404022,2.000000 1.455951,2.000000 
	C1.166667,1.666667 1.315919,1.056198 1.502793,1.044456 
	C2.830883,0.961004 4.166667,1.000000 5.500000,1.000000 
	C337.333344,1.000000 669.166687,1.000000 1000.721558,1.507973 
	C1000.257690,2.027829 1000.072266,2.039711 999.886902,2.051594 
z"/>
<path fill="#FAF6D4" opacity="1.000000" stroke="none" 
	d="
M999.936890,2.497841 
	C1000.072266,2.039711 1000.257690,2.027829 1000.721558,2.007973 
	C1001.000000,335.000000 1001.000000,668.000000 1000.500000,1001.000000 
	C999.995605,668.314697 999.991272,335.629395 999.936890,2.497841 
z"/>
<path fill="#323330" opacity="1.000000" stroke="none" 
	d="
M828.891174,569.383667 
	C827.912720,569.883972 826.934326,570.384338 825.297729,570.975220 
	C822.622009,569.352966 820.659485,567.569214 818.570251,565.948914 
	C816.761597,564.546204 814.809204,563.328979 812.920288,562.029785 
	C806.638855,556.167786 801.132935,549.011963 793.926636,544.693115 
	C774.497009,533.048645 753.790710,532.033875 733.697021,542.915283 
	C721.566284,549.484497 715.719299,560.669189 714.867676,574.825256 
	C713.636780,595.286560 723.856140,608.866333 740.497009,617.982239 
	C755.330200,626.107788 770.897156,632.938660 786.342041,639.892822 
	C811.200500,651.085571 836.404785,661.642944 859.159241,676.861572 
	C879.835693,690.690247 897.694885,707.406921 908.221252,730.574280 
	C915.215942,745.968872 918.845093,762.102539 920.279053,779.083496 
	C921.937256,798.719116 919.475586,817.508850 913.079773,835.872070 
	C908.352417,849.444885 901.475464,861.824463 891.859558,872.787048 
	C871.109863,896.442993 844.171814,908.648682 814.415405,915.926208 
	C793.732117,920.984863 772.629944,921.933411 751.532776,920.856201 
	C724.101807,919.455444 697.565369,913.247620 672.805664,901.246460 
	C640.348022,885.514160 615.262390,861.678833 598.034058,829.142700 
	C597.974060,828.329346 597.971619,828.142212 597.969238,827.955017 
	C597.969238,827.955017 597.989624,828.006348 598.319214,827.933899 
	C601.688477,826.267578 604.964844,824.999695 607.713196,823.004517 
	C611.988037,819.901062 615.903931,816.303162 619.971985,812.914856 
	C627.621033,808.297119 635.231323,803.613647 642.929443,799.079285 
	C651.517273,794.020813 660.180542,789.090088 668.826294,784.130432 
	C669.519592,783.732666 670.331726,783.541992 670.411072,783.511902 
	C677.946350,792.892395 684.656921,802.436462 692.580017,810.836853 
	C705.183594,824.199707 720.867554,832.813171 738.871582,836.760315 
	C761.704041,841.765930 784.169067,841.080566 805.180054,829.793945 
	C820.190063,821.730835 828.874451,808.754883 828.699829,791.472351 
	C828.504761,772.167603 817.820129,758.513855 801.406067,749.953308 
	C782.861694,740.281677 763.757385,731.636841 744.637207,723.128357 
	C721.239380,712.716309 697.894592,702.332336 677.090088,687.072937 
	C652.773499,669.237549 635.824402,646.200806 628.545898,616.812134 
	C620.104492,582.727905 622.294983,549.432434 639.522766,518.219788 
	C649.492676,500.156677 664.051270,486.242554 681.777832,475.572449 
	C700.248596,464.454407 720.422302,459.163910 741.642456,456.923065 
	C767.927429,454.147369 793.671631,456.709717 818.966919,464.189270 
	C820.869690,464.751892 822.667664,465.668915 824.826660,467.023956 
	C826.563232,468.852325 827.855042,470.292847 829.434692,471.266327 
	C836.430359,475.577698 843.494080,479.779694 850.563416,483.970123 
	C854.034607,486.027710 857.571960,487.973846 861.079346,489.970428 
	C861.366882,490.091095 861.606506,490.274353 861.964966,491.067322 
	C865.308350,495.796844 868.451904,500.004944 871.669495,504.155579 
	C876.315674,510.149109 881.249512,515.935730 885.621399,522.120972 
	C889.386719,527.448059 888.908997,528.785461 884.163818,532.962158 
	C883.246399,533.769714 882.729492,535.032410 882.027832,536.085144 
	C872.800293,542.159424 863.585022,548.252441 854.337219,554.295715 
	C851.852783,555.919189 849.269470,557.391235 846.145874,558.800415 
	C841.069275,560.878418 836.490601,562.933350 832.138367,565.389465 
	C830.747559,566.174316 829.956543,568.022156 828.891174,569.383667 
z"/>
<path fill="#323330" opacity="1.000000" stroke="none" 
	d="
M543.000000,585.000000 
	C543.000000,653.645630 543.424194,721.795105 542.799072,789.934998 
	C542.535034,818.712769 536.089478,846.360535 518.994690,870.381775 
	C507.733521,886.205811 493.265930,898.163147 475.446625,906.508118 
	C448.612946,919.074707 420.335205,922.361267 391.359802,920.819824 
	C370.859344,919.729248 351.151062,914.623840 332.379425,905.810608 
	C305.052338,892.980652 285.083191,872.622498 270.010559,846.948364 
	C269.337402,845.801697 268.753754,844.597961 268.192505,843.390991 
	C265.185791,836.925293 265.351868,835.810852 271.450287,832.086365 
	C293.700134,818.497620 316.028046,805.036560 338.335846,791.542786 
	C338.592346,791.387695 338.973297,791.438416 339.780090,791.324951 
	C342.855652,796.566650 345.842743,802.086060 349.233063,807.345642 
	C356.139954,818.060486 363.859955,828.262024 375.990753,833.380554 
	C396.752075,842.140808 417.238739,842.106934 435.709595,827.823608 
	C440.249847,824.312622 443.909882,818.332642 445.600342,812.766602 
	C448.411316,803.510803 450.747253,793.676758 450.779510,784.077759 
	C451.133148,678.778137 451.001068,573.476868 451.002350,468.176056 
	C451.002441,461.008545 451.007965,461.001892 457.944061,461.001160 
	C484.435883,460.998352 510.928314,461.092010 537.418884,460.908905 
	C541.788513,460.878754 543.110352,462.106812 543.092407,466.538025 
	C542.933105,505.858154 542.999878,545.179199 543.000000,585.000000 
z"/>
<path fill="#323330" opacity="1.000000" stroke="none" 
	d="
M882.370300,536.009521 
	C882.729492,535.032410 883.246399,533.769714 884.163818,532.962158 
	C888.908997,528.785461 889.386719,527.448059 885.621399,522.120972 
	C881.249512,515.935730 876.315674,510.149109 871.669495,504.155579 
	C868.451904,500.004944 865.308350,495.796844 862.079834,491.264587 
	C866.123718,494.885132 870.560974,498.566437 874.228882,502.899048 
	C878.801086,508.299835 883.082947,514.019409 886.871826,519.993530 
	C892.806824,529.351501 892.381042,530.269104 882.370300,536.009521 
z"/>
<path fill="#323330" opacity="1.000000" stroke="none" 
	d="
M860.904419,489.682983 
	C857.571960,487.973846 854.034607,486.027710 850.563416,483.970123 
	C843.494080,479.779694 836.430359,475.577698 829.434692,471.266327 
	C827.855042,470.292847 826.563232,468.852325 825.083313,467.270691 
	C838.304749,472.222321 850.459473,479.312347 860.904419,489.682983 
z"/>
<path fill="#323330" opacity="1.000000" stroke="none" 
	d="
M619.622192,812.987671 
	C615.903931,816.303162 611.988037,819.901062 607.713196,823.004517 
	C604.964844,824.999695 601.688477,826.267578 598.297668,827.916382 
	C598.957214,826.531616 599.658203,824.595947 601.032166,823.737854 
	C607.005310,820.007446 613.174438,816.591064 619.622192,812.987671 
z"/>
<path fill="#323330" opacity="1.000000" stroke="none" 
	d="
M829.166748,569.515259 
	C829.956543,568.022156 830.747559,566.174316 832.138367,565.389465 
	C836.490601,562.933350 841.069275,560.878418 845.801880,558.870239 
	C840.509705,562.597168 834.976013,566.122009 829.166748,569.515259 
z"/>
<path fill="#323330" opacity="1.000000" stroke="none" 
	d="
M813.082642,562.333374 
	C814.809204,563.328979 816.761597,564.546204 818.570251,565.948914 
	C820.659485,567.569214 822.622009,569.352966 825.049011,571.117737 
	C823.973083,574.283142 822.248840,574.782654 820.054443,571.754272 
	C817.828918,568.683044 815.518372,565.673462 813.082642,562.333374 
z"/>
<path fill="#323330" opacity="1.000000" stroke="none" 
	d="
M597.823792,828.068726 
	C597.971619,828.142212 597.974060,828.329346 597.973450,828.797791 
	C597.873047,828.780212 597.775696,828.481323 597.823792,828.068726 
z"/>
</svg>